<mxfile host="app.diagrams.net" agent="Mozilla/5.0 (Windows NT 10.0; Win64; x64) AppleWebKit/537.36 (KHTML, like Gecko) Chrome/131.0.0.0 Safari/537.36" version="25.0.3">
  <diagram name="Page-1" id="d5DyijOdA5kYYlv_WVxd">
    <mxGraphModel dx="890" dy="360" grid="1" gridSize="10" guides="1" tooltips="1" connect="1" arrows="1" fold="1" page="1" pageScale="1" pageWidth="827" pageHeight="1169" math="0" shadow="0">
      <root>
        <mxCell id="0" />
        <mxCell id="1" parent="0" />
        <mxCell id="wS7CwakgFUcAalhMSNPP-14" style="edgeStyle=orthogonalEdgeStyle;rounded=0;orthogonalLoop=1;jettySize=auto;html=1;entryX=0;entryY=0.5;entryDx=0;entryDy=0;" parent="1" source="wS7CwakgFUcAalhMSNPP-1" target="wS7CwakgFUcAalhMSNPP-7" edge="1">
          <mxGeometry relative="1" as="geometry" />
        </mxCell>
        <mxCell id="wS7CwakgFUcAalhMSNPP-1" value="&lt;div&gt;&amp;lt;&amp;lt;controller&amp;gt;&amp;gt;&lt;/div&gt;UpdateAirlineHandler" style="swimlane;fontStyle=1;align=center;verticalAlign=top;childLayout=stackLayout;horizontal=1;startSize=50;horizontalStack=0;resizeParent=1;resizeParentMax=0;resizeLast=0;collapsible=1;marginBottom=0;whiteSpace=wrap;html=1;" parent="1" vertex="1">
          <mxGeometry x="99" y="322" width="160" height="80" as="geometry" />
        </mxCell>
        <mxCell id="wS7CwakgFUcAalhMSNPP-2" value="" style="line;strokeWidth=1;fillColor=none;align=left;verticalAlign=middle;spacingTop=-1;spacingLeft=3;spacingRight=3;rotatable=0;labelPosition=right;points=[];portConstraint=eastwest;strokeColor=inherit;" parent="wS7CwakgFUcAalhMSNPP-1" vertex="1">
          <mxGeometry y="50" width="160" height="30" as="geometry" />
        </mxCell>
        <mxCell id="wS7CwakgFUcAalhMSNPP-3" style="edgeStyle=orthogonalEdgeStyle;rounded=0;orthogonalLoop=1;jettySize=auto;html=1;entryX=0.5;entryY=0;entryDx=0;entryDy=0;" parent="1" source="wS7CwakgFUcAalhMSNPP-4" target="wS7CwakgFUcAalhMSNPP-1" edge="1">
          <mxGeometry relative="1" as="geometry" />
        </mxCell>
        <mxCell id="wS7CwakgFUcAalhMSNPP-4" value="&lt;div&gt;&amp;lt;&amp;lt;boundary&amp;gt;&amp;gt;&lt;/div&gt;AirlineInputWindow" style="swimlane;fontStyle=1;align=center;verticalAlign=top;childLayout=stackLayout;horizontal=1;startSize=50;horizontalStack=0;resizeParent=1;resizeParentMax=0;resizeLast=0;collapsible=1;marginBottom=0;whiteSpace=wrap;html=1;" parent="1" vertex="1">
          <mxGeometry x="99" y="158" width="160" height="80" as="geometry" />
        </mxCell>
        <mxCell id="wS7CwakgFUcAalhMSNPP-5" value="" style="line;strokeWidth=1;fillColor=none;align=left;verticalAlign=middle;spacingTop=-1;spacingLeft=3;spacingRight=3;rotatable=0;labelPosition=right;points=[];portConstraint=eastwest;strokeColor=inherit;" parent="wS7CwakgFUcAalhMSNPP-4" vertex="1">
          <mxGeometry y="50" width="160" height="30" as="geometry" />
        </mxCell>
        <mxCell id="wS7CwakgFUcAalhMSNPP-6" value="Airline" style="swimlane;fontStyle=1;align=center;verticalAlign=top;childLayout=stackLayout;horizontal=1;startSize=26;horizontalStack=0;resizeParent=1;resizeParentMax=0;resizeLast=0;collapsible=1;marginBottom=0;whiteSpace=wrap;html=1;" parent="1" vertex="1">
          <mxGeometry x="332" y="284" width="160" height="190" as="geometry" />
        </mxCell>
        <mxCell id="wS7CwakgFUcAalhMSNPP-7" value="&lt;span style=&quot;text-wrap-mode: nowrap;&quot;&gt;- Air_ID:Int {key}&lt;/span&gt;&lt;div style=&quot;text-wrap-mode: nowrap;&quot;&gt;- Air_Name: string&lt;/div&gt;&lt;div style=&quot;text-wrap-mode: nowrap;&quot;&gt;- Air_Policy: string&lt;/div&gt;&lt;div style=&quot;text-wrap-mode: nowrap;&quot;&gt;- Air_Email: string&lt;/div&gt;&lt;div style=&quot;text-wrap-mode: nowrap;&quot;&gt;- Air_phoneNum: string&lt;/div&gt;&lt;div style=&quot;text-wrap-mode: nowrap;&quot;&gt;- Air_Website: string&lt;/div&gt;" style="text;strokeColor=none;fillColor=none;align=left;verticalAlign=top;spacingLeft=4;spacingRight=4;overflow=hidden;rotatable=0;points=[[0,0.5],[1,0.5]];portConstraint=eastwest;whiteSpace=wrap;html=1;" parent="wS7CwakgFUcAalhMSNPP-6" vertex="1">
          <mxGeometry y="26" width="160" height="104" as="geometry" />
        </mxCell>
        <mxCell id="wS7CwakgFUcAalhMSNPP-8" value="" style="line;strokeWidth=1;fillColor=none;align=left;verticalAlign=middle;spacingTop=-1;spacingLeft=3;spacingRight=3;rotatable=0;labelPosition=right;points=[];portConstraint=eastwest;strokeColor=inherit;" parent="wS7CwakgFUcAalhMSNPP-6" vertex="1">
          <mxGeometry y="130" width="160" height="60" as="geometry" />
        </mxCell>
        <mxCell id="wS7CwakgFUcAalhMSNPP-9" value="ticket" style="swimlane;fontStyle=1;align=center;verticalAlign=top;childLayout=stackLayout;horizontal=1;startSize=26;horizontalStack=0;resizeParent=1;resizeParentMax=0;resizeLast=0;collapsible=1;marginBottom=0;whiteSpace=wrap;html=1;" parent="1" vertex="1">
          <mxGeometry x="652" y="244" width="160" height="270" as="geometry" />
        </mxCell>
        <mxCell id="wS7CwakgFUcAalhMSNPP-10" value="&lt;span style=&quot;text-wrap-mode: nowrap;&quot;&gt;- Ticket_ID : Int {key}&lt;/span&gt;&lt;div style=&quot;text-wrap-mode: nowrap;&quot;&gt;&lt;div style=&quot;text-wrap-mode: wrap;&quot;&gt;- flight_no : int&lt;/div&gt;&lt;div style=&quot;text-wrap-mode: wrap;&quot;&gt;- dept_loc : string&lt;/div&gt;&lt;div style=&quot;text-wrap-mode: wrap;&quot;&gt;- dept_date : date&lt;/div&gt;&lt;div style=&quot;text-wrap-mode: wrap;&quot;&gt;- dept_time : time&lt;/div&gt;&lt;div style=&quot;text-wrap-mode: wrap;&quot;&gt;- Arr_loc : string&lt;/div&gt;&lt;div style=&quot;text-wrap-mode: wrap;&quot;&gt;- Arr_date : date&lt;/div&gt;&lt;div style=&quot;text-wrap-mode: wrap;&quot;&gt;- Arr_time : Time&lt;/div&gt;&lt;div style=&quot;text-wrap-mode: wrap;&quot;&gt;- seat_no : int&lt;/div&gt;&lt;div style=&quot;text-wrap-mode: wrap;&quot;&gt;- seat_discreption : string&lt;/div&gt;&lt;div style=&quot;text-wrap-mode: wrap;&quot;&gt;- class : sting&lt;/div&gt;&lt;div style=&quot;text-wrap-mode: wrap;&quot;&gt;- price : currency&lt;/div&gt;&lt;/div&gt;" style="text;strokeColor=none;fillColor=none;align=left;verticalAlign=top;spacingLeft=4;spacingRight=4;overflow=hidden;rotatable=0;points=[[0,0.5],[1,0.5]];portConstraint=eastwest;whiteSpace=wrap;html=1;" parent="wS7CwakgFUcAalhMSNPP-9" vertex="1">
          <mxGeometry y="26" width="160" height="184" as="geometry" />
        </mxCell>
        <mxCell id="wS7CwakgFUcAalhMSNPP-11" value="" style="line;strokeWidth=1;fillColor=none;align=left;verticalAlign=middle;spacingTop=-1;spacingLeft=3;spacingRight=3;rotatable=0;labelPosition=right;points=[];portConstraint=eastwest;strokeColor=inherit;" parent="wS7CwakgFUcAalhMSNPP-9" vertex="1">
          <mxGeometry y="210" width="160" height="60" as="geometry" />
        </mxCell>
        <mxCell id="wS7CwakgFUcAalhMSNPP-12" style="edgeStyle=orthogonalEdgeStyle;rounded=0;orthogonalLoop=1;jettySize=auto;html=1;entryX=0;entryY=0.5;entryDx=0;entryDy=0;" parent="1" source="wS7CwakgFUcAalhMSNPP-7" target="wS7CwakgFUcAalhMSNPP-10" edge="1">
          <mxGeometry relative="1" as="geometry" />
        </mxCell>
      </root>
    </mxGraphModel>
  </diagram>
</mxfile>
